<?xml version="1.0" encoding="utf-8"?>
<!-- Generator: Adobe Illustrator 26.0.2, SVG Export Plug-In . SVG Version: 6.00 Build 0)  -->
<svg version="1.1" id="katman_1" xmlns="http://www.w3.org/2000/svg" xmlns:xlink="http://www.w3.org/1999/xlink" x="0px" y="0px"
	 viewBox="0 0 256.4 244" style="enable-background:new 0 0 256.4 244;" xml:space="preserve">
<style type="text/css">
	.st0{fill:#212529;}
	.st1{fill:#0E6FFD;}
</style>
<path class="st0" d="M71.4,72.3c25.2,0,50.1,0,75.1,0c4.2,0,7.3,1.4,7.3,5.9c0,4.5-3.2,5.9-7.3,5.9c-24.9-0.1-49.8,0-74.9,0
	c0,9.2,0,18.2,0,27.5c24.8,0,49.6,0,74.3,0c4.2,0,7.8,0.9,7.9,5.8c0.1,5-3.6,6-7.9,6c-24.7-0.1-49.4,0-74.4,0c0,2.7,0.1,5.4,0,8
	c-0.2,3.5-2.3,5.6-5.8,5.6c-3.5,0-5.8-2.1-5.8-5.6c-0.1-33.9-0.2-67.9,0.1-101.8c0.1-9.4,7.6-17.7,16.7-19.6
	c9.9-2,18.4,2.4,23.4,11.9c4.4,8.4,2.9,17.4,2.7,26.2c-0.1,3.2-3,4.9-6.2,4.5c-3.4-0.4-5-2.6-5.3-6c-0.4-6,1.2-12.1-1.1-18
	c-1.8-4.6-4.8-8.3-10.5-7.2c-5.7,1.1-8.1,5.1-8.1,10.9C71.5,45.5,71.4,58.7,71.4,72.3z"/>
<path class="st1" d="M180,166.9c-13.8,9.9-27.7,10.2-41.6,0.2c-13.6,9.5-27.2,9.5-40.9,0c-13.5,9.5-27.1,9.5-40.8,0
	c-13.3,10.5-32.4,9.2-43.7-3c-2.9-3.1-4.6-6.5-0.9-9.8c3.5-3.2,6.6-1.5,9.5,1.6c8.1,8.8,21.7,8.6,29.8-0.3c3.3-3.7,6.7-4,10.2-0.2
	c8.7,9.3,21.8,9.3,30.5,0c3.4-3.6,6.6-3.6,10,0.1c8.5,9.2,21.8,9.2,30.3,0c3.5-3.8,6.9-3.8,10.3,0.2c7.4,8.4,20.5,9.4,28.8,1.8
	c5.5-5,9.8-6.6,16-0.2c7.5,7.7,20.4,6.4,27.9-1.7c2.8-3.1,6-4.4,9.3-1.4c3.4,3.1,2.1,6.4-0.6,9.4C212.9,175.8,196.6,177.1,180,166.9
	z"/>
<path class="st0" d="M166.1,80.4c0-17.7-0.7-35.5,0.2-53.2c0.6-10.9,11.4-18.4,22.5-17.7c10.8,0.7,19.8,9.7,19.9,20.5
	c0.2,22.6,0.1,45.1,0,67.7c0,3.6-2.1,5.9-5.8,5.9c-3.9,0-5.9-2.4-5.9-6.3c0-21.8,0-43.5,0-65.3c0-6.5-3.2-10.6-9.8-10.7
	c-6.6,0-9.8,4.1-9.8,10.6c0,32.5,0,65.1,0,97.6c0,4.2-1.3,7.3-5.9,7.4c-4.5,0-6-3.1-6-7.3c0.1-16.4,0-32.9,0-49.3
	C165.8,80.4,165.9,80.4,166.1,80.4z"/>
<path class="st1" d="M71.4,213.6c0,3.5,0.1,6.7,0,9.9c-0.2,3.7-2.3,5.8-6,5.8c-3.5-0.1-5.7-2.2-5.7-5.7c-0.1-10.5-0.1-21.1,0-31.6
	c0-3.5,2.2-5.6,5.8-5.7c3.6,0,5.7,2,5.9,5.6c0.2,3.2,0,6.5,0,10.1c8.2,0,16.2,0,24.3,0c17.2,0,34.3,0,51.5,0c4,0,6.6,1.8,6.5,5.9
	c0,4.1-2.6,5.9-6.6,5.9C122,213.6,96.8,213.6,71.4,213.6z"/>
<path class="st1" d="M177.4,207.8c0,5.1,0.1,10.3,0,15.4c-0.1,3.8-2.2,6-6,6c-3.7-0.1-5.7-2.3-5.7-6c-0.1-10.4-0.1-20.7,0-31.1
	c0-3.7,2.1-5.9,5.7-6c3.8-0.1,5.9,2.2,6,6C177.5,197.4,177.4,202.6,177.4,207.8z"/>
<path class="st1" d="M244.1,174.4c-3.6-0.6-5.9-2.4-5.8-6.1c0.1-3.5,2.3-5.7,5.8-5.7c3.6,0,5.8,2.2,5.8,5.8
	C250,172.1,247.6,173.9,244.1,174.4z"/>
</svg>
